<svg width="27" height="20" viewBox="0 0 27 20" fill="none" xmlns="http://www.w3.org/2000/svg">
<path d="M19.6997 6.83536C19.6997 7.31759 19.3032 7.70851 18.8141 7.70851C18.3249 7.70851 17.9284 7.31759 17.9284 6.83536C17.9284 6.35314 18.3249 5.96222 18.8141 5.96222C19.3032 5.96222 19.6997 6.35314 19.6997 6.83536Z" fill="white"/>
<path d="M17.0427 9.45481C17.5319 9.45481 17.9284 9.06389 17.9284 8.58166C17.9284 8.09943 17.5319 7.70851 17.0427 7.70851C16.5536 7.70851 16.157 8.09943 16.157 8.58166C16.157 9.06389 16.5536 9.45481 17.0427 9.45481Z" fill="white"/>
<path d="M21.4711 8.58166C21.4711 9.06389 21.0745 9.45481 20.5854 9.45481C20.0963 9.45481 19.6997 9.06389 19.6997 8.58166C19.6997 8.09943 20.0963 7.70851 20.5854 7.70851C21.0745 7.70851 21.4711 8.09943 21.4711 8.58166Z" fill="white"/>
<path d="M18.8141 11.2011C19.3032 11.2011 19.6997 10.8102 19.6997 10.328C19.6997 9.84573 19.3032 9.45481 18.8141 9.45481C18.3249 9.45481 17.9284 9.84573 17.9284 10.328C17.9284 10.8102 18.3249 11.2011 18.8141 11.2011Z" fill="white"/>
<path d="M7.30031 5.96222H9.07166V7.70851H10.843V9.45481H9.07166V11.2011H7.30031V9.45481H5.52897V7.70851H7.30031V5.96222Z" fill="white"/>
<path d="M4.73381 2.0033C4.60721 1.53751 4.8876 1.05873 5.36008 0.933917L8.78205 0.0299685C9.25453 -0.0948409 9.74018 0.181583 9.86678 0.647377C9.87245 0.668233 9.8773 0.689115 9.88135 0.70999C11.0411 0.572664 12.274 0.505044 13.5 0.505044C14.774 0.505044 16.0554 0.578056 17.2544 0.726421C17.259 0.700076 17.2648 0.673705 17.272 0.647377C17.3986 0.181583 17.8842 -0.0948409 18.3567 0.0299685L21.7787 0.933917C22.2512 1.05873 22.5315 1.53751 22.4049 2.0033C22.3853 2.07573 22.3569 2.14358 22.3212 2.20606C22.5695 2.3644 22.792 2.53707 22.983 2.72537C23.7051 3.43721 24.3633 4.5596 24.9209 5.82006C25.4871 7.09997 25.9825 8.59844 26.3471 10.127C26.7116 11.6546 26.9508 13.2347 26.9932 14.6773C27.0351 16.1011 26.8883 17.4753 26.411 18.5366C25.9684 19.5209 24.9214 20.0975 23.8521 19.9864C22.7254 19.8693 21.8758 19.2979 21.1712 18.6366C20.7378 18.2299 20.2924 17.7176 19.8635 17.2242C19.64 16.9672 19.4208 16.715 19.2103 16.4858C17.9206 15.0819 16.3828 13.8205 13.5 13.8205C10.6172 13.8205 9.07939 15.0819 7.78975 16.4858C7.57913 16.7151 7.36006 16.9671 7.13656 17.2242C6.70757 17.7176 6.26221 18.2299 5.82877 18.6366C5.12417 19.2979 4.27464 19.8693 3.14785 19.9864C2.07855 20.0975 1.03159 19.5209 0.588943 18.5366C0.111668 17.4753 -0.0350784 16.1011 0.00678665 14.6773C0.0492038 13.2346 0.288432 11.6546 0.652868 10.127C1.01752 8.59843 1.51289 7.09996 2.07909 5.82006C2.63668 4.55959 3.29497 3.43721 4.01703 2.72537C4.2346 2.51087 4.4931 2.31666 4.78387 2.1408C4.76366 2.09712 4.74684 2.05121 4.73381 2.0033ZM8.34076 2.72376C6.78734 3.04617 5.73882 3.49756 5.26956 3.96018C4.78154 4.4413 4.22974 5.32686 3.70274 6.51815C3.18435 7.68999 2.72062 9.08708 2.37717 10.5268C2.03349 11.9673 1.8156 13.4281 1.77739 14.7279C1.73862 16.0464 1.88773 17.116 2.20828 17.8288C2.33258 18.1052 2.64035 18.2832 2.96217 18.2497C3.54233 18.1894 4.04376 17.9008 4.60745 17.3718C4.98363 17.0188 5.31777 16.6329 5.69773 16.194C5.93291 15.9224 6.18565 15.6305 6.47679 15.3136C7.93986 13.7209 9.9176 12.0742 13.5 12.0742C17.0824 12.0742 19.0601 13.7209 20.5232 15.3136C20.8144 15.6305 21.0671 15.9224 21.3023 16.194C21.6822 16.6329 22.0164 17.0188 22.3925 17.3718C22.9562 17.9008 23.4577 18.1894 24.0378 18.2497C24.3596 18.2832 24.6674 18.1052 24.7917 17.8288C25.1123 17.116 25.2614 16.0464 25.2226 14.7279C25.1844 13.4281 24.9665 11.9673 24.6228 10.5268C24.2794 9.08708 23.8157 7.68999 23.2973 6.51815C22.7703 5.32686 22.2185 4.4413 21.7305 3.96018C21.2612 3.49756 20.2127 3.04617 18.6593 2.72376C17.1549 2.41152 15.3359 2.25134 13.5 2.25134C11.6641 2.25134 9.84518 2.41152 8.34076 2.72376Z" fill="white"/>
</svg>
