<svg width="24" height="21" viewBox="0 0 24 21" fill="none" xmlns="http://www.w3.org/2000/svg">
<path d="M16.5 1.5C16.5 0.671573 17.1716 0 18 0H21C21.8284 0 22.5 0.671574 22.5 1.5V19.5H23.25C23.6642 19.5 24 19.8358 24 20.25C24 20.6642 23.6642 21 23.25 21H0.75C0.335786 21 0 20.6642 0 20.25C0 19.8358 0.335786 19.5 0.75 19.5H1.5V15C1.5 14.1716 2.17157 13.5 3 13.5H6C6.82843 13.5 7.5 14.1716 7.5 15V19.5H9V9C9 8.17157 9.67157 7.5 10.5 7.5H13.5C14.3284 7.5 15 8.17157 15 9V19.5H16.5V1.5ZM18 19.5H21V1.5H18V19.5ZM13.5 19.5V9H10.5V19.5H13.5ZM6 19.5V15H3V19.5H6Z" fill="white"/>
</svg>
