<svg width="20" height="20" viewBox="0 0 20 20" fill="none" xmlns="http://www.w3.org/2000/svg">
<path d="M1.25 0L0 1.25L2.75111 5.10155C2.98574 5.43004 3.36458 5.625 3.76827 5.625H3.85723C4.18875 5.625 4.5067 5.7567 4.74112 5.99112L8.08486 9.33486L4.81373 12.653C4.47651 12.5534 4.1195 12.5 3.75 12.5C1.67893 12.5 0 14.1789 0 16.25C0 18.3211 1.67893 20 3.75 20C5.82107 20 7.5 18.3211 7.5 16.25C7.5 15.8805 7.44656 15.5235 7.34699 15.1863L10.6651 11.9151L11.875 13.125L11.4943 14.2671C11.3446 14.7163 11.4615 15.2115 11.7963 15.5463L15.8839 19.6339C16.128 19.878 16.4479 20 16.7678 20C17.0877 20 17.4076 19.878 17.6516 19.6339L19.6339 17.6517C19.878 17.4076 20 17.0877 20 16.7678C20 16.4479 19.878 16.128 19.6339 15.8839L15.5463 11.7963C15.2115 11.4615 14.7163 11.3446 14.2671 11.4943L13.125 11.875L11.9241 10.6741L15.2739 7.37171C15.5851 7.45538 15.9124 7.5 16.25 7.5C18.3211 7.5 20 5.82107 20 3.75C20 3.41408 19.9558 3.08847 19.873 2.77867L17.1967 5.45495L15 4.99998L14.545 2.8033L17.2213 0.127019C16.9115 0.0441698 16.5859 0 16.25 0C14.1789 0 12.5 1.67893 12.5 3.75C12.5 4.08765 12.5446 4.41489 12.6283 4.72612L9.32594 8.07594L5.99112 4.74112C5.7567 4.5067 5.625 4.18875 5.625 3.85723V3.76827C5.625 3.36458 5.43004 2.98574 5.10155 2.75111L1.25 0ZM13.3081 13.3081C13.5521 13.064 13.9479 13.064 14.1919 13.3081L17.8347 16.9508C18.0788 17.1949 18.0788 17.5906 17.8347 17.8347C17.5906 18.0788 17.1949 18.0788 16.9508 17.8347L13.3081 14.1919C13.064 13.9479 13.064 13.5521 13.3081 13.3081ZM3.75 13.75L4.33881 14.0525L5 14.0849L5.35867 14.6413L5.91506 15L5.94748 15.6612L6.25 16.25L5.94748 16.8388L5.91506 17.5L5.35867 17.8586L5 18.415L4.33881 18.4475L3.75 18.75L3.16119 18.4475L2.5 18.415L2.14133 17.8586L1.58494 17.5L1.55252 16.8388L1.25 16.25L1.55252 15.6612L1.58494 15L2.14133 14.6413L2.5 14.0849L3.16119 14.0525L3.75 13.75Z" fill="white"/>
</svg>
