<svg width="29" height="22" viewBox="0 0 29 22" fill="none" xmlns="http://www.w3.org/2000/svg">
<path d="M27.1875 22C27.1875 22 29 22 29 20.1667C29 18.3333 27.1875 12.8333 19.9375 12.8333C12.6875 12.8333 10.875 18.3333 10.875 20.1667C10.875 22 12.6875 22 12.6875 22H27.1875ZM12.728 20.1667C12.7217 20.1659 12.7129 20.1648 12.7023 20.163C12.6972 20.1621 12.6923 20.1612 12.6875 20.1603C12.6901 19.6762 12.99 18.2727 14.0637 17.0056C15.0679 15.8205 16.8249 14.6667 19.9375 14.6667C23.0501 14.6667 24.8071 15.8205 25.8113 17.0056C26.885 18.2727 27.1849 19.6762 27.1875 20.1603C27.1827 20.1612 27.1778 20.1621 27.1727 20.163C27.1621 20.1648 27.1533 20.1659 27.147 20.1667H12.728Z" fill="white"/>
<path d="M19.9375 9.16667C21.9395 9.16667 23.5625 7.52504 23.5625 5.5C23.5625 3.47496 21.9395 1.83333 19.9375 1.83333C17.9355 1.83333 16.3125 3.47496 16.3125 5.5C16.3125 7.52504 17.9355 9.16667 19.9375 9.16667ZM25.375 5.5C25.375 8.53757 22.9405 11 19.9375 11C16.9345 11 14.5 8.53757 14.5 5.5C14.5 2.46243 16.9345 0 19.9375 0C22.9405 0 25.375 2.46243 25.375 5.5Z" fill="white"/>
<path d="M12.5714 13.3466C11.9047 13.1309 11.1642 12.9741 10.3426 12.8939C9.93603 12.8543 9.50961 12.8333 9.0625 12.8333C1.8125 12.8333 0 18.3333 0 20.1667C0 21.3889 0.604167 22 1.8125 22H9.45465C9.19946 21.4792 9.0625 20.8618 9.0625 20.1667C9.0625 18.3145 9.74626 16.423 11.0378 14.843C11.4791 14.3032 11.9913 13.7997 12.5714 13.3466ZM8.91758 14.6675C7.83463 16.3416 7.25 18.2503 7.25 20.1667H1.8125C1.8125 19.6887 2.11019 18.2783 3.18865 17.0056C4.17724 15.839 5.89514 14.7027 8.91758 14.6675Z" fill="white"/>
<path d="M2.71875 6.41667C2.71875 3.3791 5.1532 0.916667 8.15625 0.916667C11.1593 0.916667 13.5938 3.3791 13.5938 6.41667C13.5938 9.45423 11.1593 11.9167 8.15625 11.9167C5.1532 11.9167 2.71875 9.45423 2.71875 6.41667ZM8.15625 2.75C6.15422 2.75 4.53125 4.39162 4.53125 6.41667C4.53125 8.44171 6.15422 10.0833 8.15625 10.0833C10.1583 10.0833 11.7812 8.44171 11.7812 6.41667C11.7812 4.39162 10.1583 2.75 8.15625 2.75Z" fill="white"/>
</svg>
